<svg id="visual" viewBox="0 0 1372 800" width="1372" height="800" xmlns="http://www.w3.org/2000/svg" xmlns:xlink="http://www.w3.org/1999/xlink" version="1.1"><rect x="0" y="0" width="1372" height="800" fill="#a2ccd7"></rect><path d="M0 126L22.8 230C45.7 334 91.3 542 137 630.5C182.7 719 228.3 688 274.2 596.7C320 505.3 366 353.7 411.8 346.3C457.7 339 503.3 476 549 525.5C594.7 575 640.3 537 686 492.3C731.7 447.7 777.3 396.3 823 425.3C868.7 454.3 914.3 563.7 960.2 558.7C1006 553.7 1052 434.3 1097.8 433.2C1143.7 432 1189.3 549 1235 498.8C1280.7 448.7 1326.3 231.3 1349.2 122.7L1372 14" fill="none" stroke-linecap="round" stroke-linejoin="miter" stroke="#538d82" stroke-width="19"></path></svg>